<svg width="24" height="24" viewBox="0 0 24 24" fill="none" xmlns="http://www.w3.org/2000/svg">
<path fill-rule="evenodd" clip-rule="evenodd" d="M12.9003 7.9C12.9003 7.40294 12.4973 7 12.0003 7C11.5032 7 11.1003 7.40294 11.1003 7.9V11.0999H7.89996C7.4029 11.0999 6.99996 11.5029 6.99996 11.9999C6.99996 12.497 7.4029 12.8999 7.89996 12.8999H11.1003V16.1C11.1003 16.5971 11.5032 17 12.0003 17C12.4973 17 12.9003 16.5971 12.9003 16.1V12.8999H16.1C16.597 12.8999 17 12.497 17 11.9999C17 11.5029 16.597 11.0999 16.1 11.0999H12.9003V7.9ZM22 12C22 17.5228 17.5228 22 12 22C6.47715 22 2 17.5228 2 12C2 6.47715 6.47715 2 12 2C17.5228 2 22 6.47715 22 12Z" fill="#202223"/>
</svg>
