<svg width="24" height="24" viewBox="0 0 24 24" fill="none" xmlns="http://www.w3.org/2000/svg">
<path fill-rule="evenodd" clip-rule="evenodd" d="M12 22C17.5228 22 22 17.5228 22 12C22 6.47715 17.5228 2 12 2C6.47715 2 2 6.47715 2 12C2 17.5228 6.47715 22 12 22ZM8.46429 14.2626C8.11282 14.614 8.11282 15.1839 8.46429 15.5354C8.81576 15.8868 9.38561 15.8868 9.73708 15.5354L11.9998 13.2727L14.2627 15.5356C14.6142 15.8871 15.184 15.8871 15.5355 15.5356C15.887 15.1842 15.887 14.6143 15.5355 14.2628L13.2726 11.9999L15.5354 9.73708C15.8868 9.38561 15.8868 8.81576 15.5354 8.46429C15.1839 8.11282 14.614 8.11282 14.2626 8.46429L11.9998 10.7271L9.73724 8.46455C9.38576 8.11308 8.81592 8.11308 8.46444 8.46455C8.11297 8.81603 8.11297 9.38587 8.46444 9.73735L10.727 11.9999L8.46429 14.2626Z" fill="#202223"/>
</svg>
