<svg width="24" height="24" viewBox="0 0 24 24" fill="none" xmlns="http://www.w3.org/2000/svg">
<path fill-rule="evenodd" clip-rule="evenodd" d="M12 22C17.5228 22 22 17.5228 22 12C22 6.47715 17.5228 2 12 2C6.47715 2 2 6.47715 2 12C2 17.5228 6.47715 22 12 22ZM16.2296 8.77376C16.5896 9.13929 16.5902 9.7325 16.2309 10.0987L11.3959 15.0852C10.8487 15.643 9.95879 15.6375 9.41835 15.073L7.76122 13.2532C7.40634 12.8826 7.41401 12.2894 7.77836 11.9284C8.14271 11.5673 8.72576 11.5751 9.08065 11.9458L10.417 13.4305L14.9272 8.77506C15.2865 8.40882 15.8696 8.40824 16.2296 8.77376Z" fill="#202223"/>
</svg>
