<svg width="24" height="24" viewBox="0 0 24 24" fill="none" xmlns="http://www.w3.org/2000/svg">
<path fill-rule="evenodd" clip-rule="evenodd" d="M12 22C17.5228 22 22 17.5228 22 12C22 6.47715 17.5228 2 12 2C6.47715 2 2 6.47715 2 12C2 17.5228 6.47715 22 12 22ZM11 8.25C11 7.69772 11.4477 7.25 12 7.25C12.5523 7.25 13 7.69772 13 8.25V12.25C13 12.8023 12.5523 13.25 12 13.25C11.4477 13.25 11 12.8023 11 12.25V8.25ZM12.0001 16.75C12.5524 16.75 13.0001 16.3023 13.0001 15.75C13.0001 15.1977 12.5524 14.75 12.0001 14.75C11.4478 14.75 11.0001 15.1977 11.0001 15.75C11.0001 16.3023 11.4478 16.75 12.0001 16.75Z" fill="#202223"/>
</svg>
