<svg width="24" height="24" viewBox="0 0 24 24" fill="none" xmlns="http://www.w3.org/2000/svg">
<path fill-rule="evenodd" clip-rule="evenodd" d="M12 22C17.5228 22 22 17.5228 22 12C22 6.47715 17.5228 2 12 2C6.47715 2 2 6.47715 2 12C2 17.5228 6.47715 22 12 22ZM9.85869 17.0682C10.5259 17.3561 11.2396 17.5 12 17.5C12.7627 17.5 13.4772 17.3564 14.1435 17.0691C14.8097 16.7819 15.3918 16.3891 15.8897 15.8907C16.3877 15.3923 16.7805 14.8094 17.0683 14.1419C17.3561 13.4743 17.5 12.7604 17.5 12C17.5 11.7803 17.4219 11.5924 17.2656 11.4361C17.1093 11.2798 16.9213 11.2016 16.7016 11.2016C16.482 11.2016 16.294 11.2798 16.1377 11.4361C15.9814 11.5924 15.9032 11.7803 15.9032 12C15.9032 13.0815 15.523 14.0024 14.7627 14.7627C14.0023 15.5231 13.0814 15.9032 11.9999 15.9032C10.9184 15.9032 9.99751 15.523 9.23721 14.7627C8.47692 14.0023 8.09677 13.0814 8.09677 11.9999C8.09677 10.9184 8.47693 9.99751 9.23725 9.23721C9.99756 8.47692 10.9185 8.09677 12 8.09677C12.2197 8.09677 12.4076 8.01863 12.5639 7.86233C12.7202 7.70603 12.7984 7.51805 12.7984 7.29839C12.7984 7.07872 12.7202 6.89075 12.5639 6.73445C12.4076 6.57815 12.2197 6.5 12 6.5C11.2396 6.5 10.5257 6.64363 9.85829 6.93088C9.19086 7.21813 8.60818 7.61179 8.11026 8.11185C7.61233 8.61192 7.21948 9.19457 6.93169 9.8598C6.6439 10.525 6.5 11.2384 6.5 12C6.5 12.7604 6.64395 13.4741 6.93184 14.1413C7.21972 14.8085 7.61271 15.3911 8.1108 15.8892C8.6089 16.3873 9.19152 16.7803 9.85869 17.0682Z" fill="#202223"/>
</svg>
