<svg width="24" height="24" viewBox="0 0 24 24" fill="none" xmlns="http://www.w3.org/2000/svg">
<path fill-rule="evenodd" clip-rule="evenodd" d="M10.0133 4.09362L2.33569 17.3933C1.43236 18.9582 2.45826 21 4.1478 21H19.8521C21.5612 21 22.5835 18.9157 21.6406 17.3534L13.614 4.05362C12.7558 2.63168 10.845 2.6529 10.0133 4.09362ZM11 9V13C11 13.5523 11.4477 14 12 14C12.5523 14 13 13.5523 13 13V9C13 8.44772 12.5523 8 12 8C11.4477 8 11 8.44772 11 9ZM13.0001 16.5C13.0001 17.0523 12.5524 17.5 12.0001 17.5C11.4478 17.5 11.0001 17.0523 11.0001 16.5C11.0001 15.9477 11.4478 15.5 12.0001 15.5C12.5524 15.5 13.0001 15.9477 13.0001 16.5Z" fill="#202223"/>
</svg>
