<svg width="24" height="24" viewBox="0 0 24 24" fill="none" xmlns="http://www.w3.org/2000/svg">
<path fill-rule="evenodd" clip-rule="evenodd" d="M20 12C20 16.4183 16.4183 20 12 20C7.58172 20 4 16.4183 4 12C4 7.58172 7.58172 4 12 4C16.4183 4 20 7.58172 20 12ZM22 12C22 17.5228 17.5228 22 12 22C6.47715 22 2 17.5228 2 12C2 6.47715 6.47715 2 12 2C17.5228 2 22 6.47715 22 12ZM12 7C12.4971 7 12.9 7.40294 12.9 7.9V11.0999H16.0997C16.5968 11.0999 16.9997 11.5029 16.9997 11.9999C16.9997 12.497 16.5968 12.8999 16.0997 12.8999H12.9V16.1C12.9 16.5971 12.4971 17 12 17C11.503 17 11.1 16.5971 11.1 16.1V12.8999H7.89971C7.40266 12.8999 6.99971 12.497 6.99971 11.9999C6.99971 11.5029 7.40266 11.0999 7.89971 11.0999H11.1V7.9C11.1 7.40294 11.503 7 12 7Z" fill="#202223"/>
</svg>
