<svg width="24" height="24" viewBox="0 0 24 24" fill="none" xmlns="http://www.w3.org/2000/svg">
<path fill-rule="evenodd" clip-rule="evenodd" d="M20 12C20 16.4183 16.4183 20 12 20C7.58172 20 4 16.4183 4 12C4 7.58172 7.58172 4 12 4C16.4183 4 20 7.58172 20 12ZM22 12C22 17.5228 17.5228 22 12 22C6.47715 22 2 17.5228 2 12C2 6.47715 6.47715 2 12 2C17.5228 2 22 6.47715 22 12ZM8.46429 15.5354C8.11282 15.1839 8.11282 14.614 8.46429 14.2626L10.727 11.9999L8.46444 9.73735C8.11297 9.38587 8.11297 8.81603 8.46444 8.46455C8.81592 8.11308 9.38576 8.11308 9.73724 8.46455L11.9998 10.7271L14.2626 8.46429C14.614 8.11282 15.1839 8.11282 15.5354 8.46429C15.8868 8.81576 15.8868 9.38561 15.5354 9.73708L13.2726 11.9999L15.5355 14.2628C15.887 14.6143 15.887 15.1842 15.5355 15.5356C15.184 15.8871 14.6142 15.8871 14.2627 15.5356L11.9998 13.2727L9.73708 15.5354C9.38561 15.8868 8.81576 15.8868 8.46429 15.5354Z" fill="#202223"/>
</svg>
