<svg width="24" height="24" viewBox="0 0 24 24" fill="none" xmlns="http://www.w3.org/2000/svg">
<path d="M9.55655 14.6625L17.0316 7.18745C17.2316 6.98745 17.4649 6.88745 17.7316 6.88745C17.9982 6.88745 18.2316 6.98745 18.4316 7.18745C18.6316 7.38745 18.7316 7.62495 18.7316 7.89995C18.7316 8.17495 18.6316 8.41245 18.4316 8.61245L10.2566 16.8125C10.0566 17.0125 9.82322 17.1125 9.55655 17.1125C9.28989 17.1125 9.05656 17.0125 8.85655 16.8125L5.55655 13.5125C5.35655 13.3125 5.26072 13.075 5.26905 12.8C5.27739 12.525 5.38155 12.2875 5.58155 12.0875C5.78155 11.8875 6.01905 11.7875 6.29405 11.7875C6.56905 11.7875 6.80655 11.8875 7.00655 12.0875L9.55655 14.6625Z" fill="#202223"/>
</svg>
