<svg width="24" height="24" viewBox="0 0 24 24" fill="none" xmlns="http://www.w3.org/2000/svg">
<path fill-rule="evenodd" clip-rule="evenodd" d="M20 12C20 16.4183 16.4183 20 12 20C7.58172 20 4 16.4183 4 12C4 7.58172 7.58172 4 12 4C16.4183 4 20 7.58172 20 12ZM22 12C22 17.5228 17.5228 22 12 22C6.47715 22 2 17.5228 2 12C2 6.47715 6.47715 2 12 2C17.5228 2 22 6.47715 22 12ZM16.2309 10.0987C16.5902 9.7325 16.5896 9.13929 16.2296 8.77376C15.8696 8.40824 15.2865 8.40882 14.9272 8.77506L10.417 13.4305L9.08065 11.9458C8.72576 11.5751 8.14271 11.5673 7.77836 11.9284C7.41401 12.2894 7.40634 12.8826 7.76122 13.2532L9.41835 15.073C9.95879 15.6375 10.8487 15.643 11.3959 15.0852L16.2309 10.0987Z" fill="#202223"/>
</svg>
