<svg width="24" height="24" viewBox="0 0 24 24" fill="none" xmlns="http://www.w3.org/2000/svg">
<path fill-rule="evenodd" clip-rule="evenodd" d="M5.30799 17.2049C4.89733 17.6156 4.89733 18.2814 5.30799 18.692C5.71864 19.1027 6.38445 19.1027 6.7951 18.692L12 13.4871L17.2049 18.692C17.6155 19.1027 18.2813 19.1027 18.692 18.692C19.1027 18.2814 19.1027 17.6156 18.692 17.2049L13.4871 12L18.692 6.79512C19.1027 6.38447 19.1027 5.71866 18.692 5.30801C18.2813 4.89735 17.6155 4.89735 17.2049 5.30801L12 10.5129L6.7951 5.30801C6.38444 4.89736 5.71864 4.89736 5.30799 5.30801C4.89733 5.71867 4.89733 6.38447 5.30799 6.79512L10.5129 12L5.30799 17.2049Z" fill="#202223"/>
</svg>
