<svg width="24" height="24" viewBox="0 0 24 24" fill="none" xmlns="http://www.w3.org/2000/svg">
<path fill-rule="evenodd" clip-rule="evenodd" d="M20.2 12C20.2 16.5287 16.5287 20.2 12 20.2C7.47126 20.2 3.8 16.5287 3.8 12C3.8 7.47126 7.47126 3.8 12 3.8C16.5287 3.8 20.2 7.47126 20.2 12ZM22 12C22 17.5228 17.5228 22 12 22C6.47715 22 2 17.5228 2 12C2 6.47715 6.47715 2 12 2C17.5228 2 22 6.47715 22 12ZM11 8.25C11 7.69772 11.4477 7.25 12 7.25C12.5523 7.25 13 7.69772 13 8.25V12.25C13 12.8023 12.5523 13.25 12 13.25C11.4477 13.25 11 12.8023 11 12.25V8.25ZM12.0001 16.75C12.5524 16.75 13.0001 16.3023 13.0001 15.75C13.0001 15.1977 12.5524 14.75 12.0001 14.75C11.4478 14.75 11.0001 15.1977 11.0001 15.75C11.0001 16.3023 11.4478 16.75 12.0001 16.75Z" fill="#202223"/>
</svg>
