<svg width="24" height="24" viewBox="0 0 24 24" fill="none" xmlns="http://www.w3.org/2000/svg">
<path fill-rule="evenodd" clip-rule="evenodd" d="M14.5 8.5C13.9477 8.5 13.5 8.05228 13.5 7.5C13.5 6.94772 13.9477 6.5 14.5 6.5H17C20.0376 6.5 22.5 8.96243 22.5 12C22.5 15.0376 20.0376 17.5 17 17.5H14.5C13.9477 17.5 13.5 17.0523 13.5 16.5C13.5 15.9477 13.9477 15.5 14.5 15.5H17C18.933 15.5 20.5 13.933 20.5 12C20.5 10.067 18.933 8.5 17 8.5H14.5ZM9.5 7.5C9.5 8.05228 9.05228 8.5 8.5 8.5H6C4.067 8.5 2.5 10.067 2.5 12C2.5 13.933 4.067 15.5 6 15.5H8.5C9.05229 15.5 9.5 15.9477 9.5 16.5C9.5 17.0523 9.05229 17.5 8.5 17.5H6C2.96243 17.5 0.5 15.0376 0.5 12C0.5 8.96243 2.96243 6.5 6 6.5H8.5C9.05228 6.5 9.5 6.94772 9.5 7.5ZM8 11C7.44772 11 7 11.4477 7 12C7 12.5523 7.44772 13 8 13H15C15.5523 13 16 12.5523 16 12C16 11.4477 15.5523 11 15 11H8Z" fill="#202223"/>
</svg>
