<svg width="24" height="24" viewBox="0 0 24 24" fill="none" xmlns="http://www.w3.org/2000/svg">
<path fill-rule="evenodd" clip-rule="evenodd" d="M12 20C16.4183 20 20 16.4183 20 12C20 7.58172 16.4183 4 12 4C7.58172 4 4 7.58172 4 12C4 16.4183 7.58172 20 12 20ZM12 22C17.5228 22 22 17.5228 22 12C22 6.47715 17.5228 2 12 2C6.47715 2 2 6.47715 2 12C2 17.5228 6.47715 22 12 22Z" fill="#202223"/>
<path d="M12 17C11.3088 17 10.6599 16.8691 10.0534 16.6074C9.44684 16.3457 8.91718 15.9884 8.46437 15.5356C8.01156 15.0828 7.65429 14.5532 7.39258 13.9466C7.13086 13.3401 7 12.6912 7 12C7 11.3077 7.13081 10.6591 7.39244 10.0544C7.65407 9.44961 8.01121 8.91993 8.46387 8.46532C8.91653 8.01071 9.44624 7.65284 10.053 7.39171C10.6598 7.13057 11.3088 7 12 7C12.1997 7 12.3706 7.07104 12.5127 7.21313C12.6548 7.35522 12.7258 7.52611 12.7258 7.72581C12.7258 7.9255 12.6548 8.09639 12.5127 8.23848C12.3706 8.38057 12.1997 8.45161 12 8.45161C11.0168 8.45161 10.1796 8.7972 9.48841 9.48838C8.79721 10.1796 8.45161 11.0167 8.45161 11.9999C8.45161 12.9831 8.7972 13.8203 9.48838 14.5115C10.1796 15.2028 11.0167 15.5484 11.9999 15.5484C12.9831 15.5484 13.8203 15.2028 14.5115 14.5116C15.2028 13.8204 15.5484 12.9832 15.5484 12C15.5484 11.8003 15.6194 11.6294 15.7615 11.4873C15.9036 11.3452 16.0745 11.2742 16.2742 11.2742C16.4739 11.2742 16.6448 11.3452 16.7869 11.4873C16.929 11.6294 17 11.8003 17 12C17 12.6912 16.8692 13.3403 16.6076 13.9471C16.3459 14.554 15.9888 15.0839 15.5361 15.537C15.0835 15.9901 14.5543 16.3472 13.9486 16.6083C13.3429 16.8694 12.6934 17 12 17Z" fill="#202223"/>
</svg>
