<svg width="24" height="24" viewBox="0 0 24 24" fill="none" xmlns="http://www.w3.org/2000/svg">
<path fill-rule="evenodd" clip-rule="evenodd" d="M3.48629 3.22892C3.83926 2.87895 4.4091 2.88137 4.75907 3.23434L7.05327 5.54816C7.05572 5.54707 7.05816 5.54597 7.06061 5.54488L8.43921 6.936C8.43677 6.93687 8.43434 6.93773 8.43191 6.9386L9.97034 8.49018C9.97229 8.4891 9.97423 8.48802 9.97618 8.48694L14.718 13.2718C14.7172 13.2732 14.7164 13.2747 14.7156 13.2761L17.2127 15.7945C17.2137 15.7938 17.2147 15.793 17.2157 15.7923L18.4938 17.0819C18.4929 17.0826 18.492 17.0832 18.4912 17.0839L20.8851 19.4983C21.2351 19.8513 21.2326 20.4211 20.8797 20.7711C20.5267 21.1211 19.9569 21.1186 19.6069 20.7657L16.9598 18.0959C15.5358 18.8713 13.7855 19.3999 11.66 19.3999C5.143 19.3999 2.16387 14.4314 1.29098 12.6143C1.09434 12.2147 1.10713 11.7691 1.2844 11.3893L1.28488 11.3882C1.79751 10.2934 3.06589 8.06551 5.42279 6.46022L3.48087 4.5017C3.1309 4.14873 3.13333 3.57889 3.48629 3.22892ZM19.8463 15.83C20.7552 14.8498 21.3843 13.8555 21.781 13.1199H21.8131L22.0555 12.6005C22.2325 12.2213 22.2455 11.7767 22.0501 11.3777C21.1846 9.55484 18.2449 4.59985 11.67 4.59985C10.7886 4.59985 9.97242 4.68888 9.21765 4.84746L10.7577 6.43884C11.0522 6.41326 11.3562 6.39985 11.67 6.39985C16.9845 6.39985 19.48 10.2441 20.3434 11.9837C20.0166 12.6371 19.4523 13.5953 18.5939 14.5359L19.8463 15.83ZM2.99104 11.9929C3.51315 10.9275 4.66459 9.05066 6.71886 7.76738L8.67423 9.73948C8.35407 10.2679 8.16978 10.8877 8.16978 11.5506C8.16978 13.4836 9.73678 15.0506 11.6698 15.0506C12.322 15.0506 12.9326 14.8722 13.4554 14.5615L15.6247 16.7494C14.5208 17.2656 13.2082 17.5999 11.66 17.5999C6.39385 17.5999 3.86295 13.7326 2.99104 11.9929Z" fill="#202223"/>
</svg>
