<svg width="24" height="24" viewBox="0 0 24 24" fill="none" xmlns="http://www.w3.org/2000/svg">
<path fill-rule="evenodd" clip-rule="evenodd" d="M11.66 17.5997C6.39385 17.5997 3.86295 13.7325 2.99104 11.9928C3.83813 10.2643 6.34177 6.39973 11.67 6.39973C16.9845 6.39973 19.48 10.244 20.3434 11.9836C19.4758 13.7178 16.936 17.5997 11.66 17.5997ZM11.67 4.59973C18.2449 4.59973 21.1846 9.55471 22.0501 11.3776C22.2455 11.7766 22.2325 12.2212 22.0555 12.6003L21.8131 13.1197H21.781C20.6522 15.2127 17.6425 19.3997 11.66 19.3997C5.143 19.3997 2.16387 14.4312 1.29098 12.6142C1.09434 12.2146 1.10713 11.769 1.2844 11.3891L1.28488 11.3881C2.13854 9.56485 5.088 4.59973 11.67 4.59973ZM15.1698 11.7888C15.1698 13.7218 13.6028 15.2888 11.6698 15.2888C9.73678 15.2888 8.16978 13.7218 8.16978 11.7888C8.16978 9.8558 9.73678 8.28879 11.6698 8.28879C13.6028 8.28879 15.1698 9.8558 15.1698 11.7888Z" fill="#202223"/>
</svg>
