<svg width="24" height="24" viewBox="0 0 24 24" fill="none" xmlns="http://www.w3.org/2000/svg">
<path d="M10.4188 1.52667C9.91712 1.52667 9.48828 1.88129 9.39192 2.37353L9.04213 4.16952C8.18253 4.49457 7.3877 4.9487 6.68975 5.52163L4.9674 4.92842C4.49296 4.76504 3.97097 4.96122 3.71961 5.39481L2.14044 8.13176C1.89013 8.56639 1.98124 9.11819 2.35932 9.44705L3.74007 10.6478C3.66826 11.0891 3.62142 11.5383 3.62142 11.9999C3.62142 12.4615 3.66826 12.9107 3.74007 13.352L2.35932 14.5527C1.98124 14.8816 1.89013 15.4334 2.14044 15.868L3.71961 18.605C3.96992 19.0396 4.49296 19.2357 4.9674 19.0734L6.68975 18.4802C7.38747 19.0528 8.18292 19.5054 9.04213 19.8303L9.39192 21.6263C9.48828 22.1185 9.91712 22.4731 10.4188 22.4731H13.5812C14.0829 22.4731 14.5117 22.1185 14.6081 21.6263L14.9579 19.8303C15.8175 19.5052 16.6123 19.0511 17.3103 18.4782L19.0326 19.0714C19.507 19.2347 20.029 19.0396 20.2804 18.605L21.8596 15.866C22.1099 15.4313 22.0188 14.8816 21.6407 14.5527L20.2599 13.352C20.3317 12.9107 20.3786 12.4615 20.3786 11.9999C20.3786 11.5383 20.3317 11.0891 20.2599 10.6478L21.6407 9.44705C22.0188 9.11819 22.1099 8.56639 21.8596 8.13176L20.2804 5.39481C20.0301 4.96017 19.507 4.76404 19.0326 4.92638L17.3103 5.51959C16.6125 4.94701 15.8171 4.49443 14.9579 4.16952L14.6081 2.37353C14.5117 1.88129 14.0829 1.52667 13.5812 1.52667H10.4188ZM12 7.8106C14.3135 7.8106 16.1893 9.68636 16.1893 11.9999C16.1893 14.3134 14.3135 16.1892 12 16.1892C9.68647 16.1892 7.81071 14.3134 7.81071 11.9999C7.81071 9.68636 9.68647 7.8106 12 7.8106Z" fill="#9C9EA0"/>
</svg>
