<svg width="24" height="24" viewBox="0 0 24 24" fill="none" xmlns="http://www.w3.org/2000/svg">
<path fill-rule="evenodd" clip-rule="evenodd" d="M20.867 11.975C20.867 12.865 21.317 13.635 22.037 14.045L22.057 14.055C22.377 14.235 22.607 14.525 22.697 14.875C22.787 15.225 22.737 15.595 22.557 15.905L20.717 19.025C20.347 19.655 19.517 19.875 18.877 19.515C18.137 19.105 17.217 19.115 16.457 19.545C15.667 19.985 15.207 20.745 15.207 21.555C15.207 22.305 14.597 22.905 13.857 22.905H10.147C9.39696 22.905 8.79696 22.295 8.79696 21.555C8.79696 20.745 8.33696 19.985 7.58696 19.565C6.78696 19.115 5.85696 19.105 5.12696 19.515C4.48696 19.875 3.66696 19.665 3.28696 19.025L1.44696 15.905C1.26696 15.595 1.20696 15.225 1.30696 14.875C1.40696 14.525 1.62696 14.235 1.94696 14.055C2.66696 13.645 3.11696 12.865 3.11696 12.025V11.985C3.11696 11.145 2.66696 10.365 1.94696 9.95503C1.62696 9.77503 1.39696 9.48503 1.30696 9.13503C1.21696 8.78503 1.26696 8.41503 1.44696 8.10503L3.26696 4.97503C3.63696 4.34503 4.46696 4.12503 5.10696 4.48503C5.83696 4.89503 6.76696 4.88503 7.52696 4.45503C8.31696 4.01503 8.77696 3.25503 8.77696 2.44503C8.77696 1.69503 9.38696 1.09503 10.127 1.09503H13.837C14.587 1.09503 15.187 1.70503 15.187 2.44503C15.187 3.25503 15.647 4.01503 16.397 4.43503C17.197 4.88503 18.127 4.89503 18.857 4.48503C19.497 4.12503 20.327 4.34503 20.697 4.98503L22.537 8.10503C22.717 8.41503 22.777 8.78503 22.677 9.13503C22.577 9.48503 22.357 9.77503 22.037 9.95503C21.317 10.355 20.867 11.135 20.867 11.975ZM20.7628 15.372L19.357 17.755C18.147 17.235 16.727 17.315 15.517 17.995C14.347 18.655 13.567 19.815 13.417 21.105H10.567C10.417 19.825 9.63696 18.655 8.43696 17.985C7.25696 17.315 5.83696 17.235 4.62696 17.765L3.21696 15.375C4.27696 14.605 4.91696 13.365 4.90696 12.035V12.005C4.90696 10.675 4.26696 9.42503 3.21696 8.66503L4.62696 6.27503C5.83696 6.79503 7.25696 6.72503 8.46696 6.03503C9.63696 5.37503 10.417 4.21503 10.567 2.92503H13.417C13.567 4.20503 14.347 5.37503 15.547 6.04503C16.727 6.71503 18.147 6.79503 19.357 6.26503L20.767 8.65503C19.707 9.42503 19.067 10.675 19.077 12.035C19.077 13.3633 19.7153 14.6118 20.7628 15.372ZM7.1001 12C7.1001 9.29998 9.3001 7.09998 12.0001 7.09998C14.7001 7.09998 16.9001 9.29998 16.9001 12C16.9001 14.7 14.7001 16.9 12.0001 16.9C9.3001 16.9 7.1001 14.7 7.1001 12ZM8.9001 12C8.9001 13.71 10.2901 15.1 12.0001 15.1C13.7101 15.1 15.1001 13.71 15.1001 12C15.1001 10.29 13.7101 8.89998 12.0001 8.89998C10.2901 8.89998 8.9001 10.29 8.9001 12Z" fill="#202223"/>
</svg>
