<svg width="24" height="24" viewBox="0 0 24 24" fill="none" xmlns="http://www.w3.org/2000/svg">
<path d="M4.01917 12.0185C4.02178 13.1751 3.41786 14.25 2.39392 14.8282V14.8282C2.17746 14.951 2.10365 15.2274 2.23008 15.4417L4.06896 18.5592C4.19703 18.7764 4.47539 18.8509 4.69484 18.7269V18.7269C5.72008 18.1473 6.97489 18.1754 7.99883 18.7575C8.01057 18.7639 8.02231 18.7703 8.03404 18.7767C9.05537 19.3511 9.69973 20.4005 9.69973 21.5532V21.5532C9.69973 21.8 9.89977 22 10.1465 22H13.8535C14.1002 22 14.3003 21.8 14.3003 21.5532V21.5532C14.3003 20.4005 14.9446 19.3498 15.966 18.7767C15.9777 18.7703 15.9894 18.7639 16.0012 18.7575C17.0251 18.1754 18.2799 18.1473 19.3052 18.7269V18.7269C19.5246 18.8509 19.803 18.7764 19.931 18.5592L21.7699 15.4417C21.8964 15.2274 21.8225 14.951 21.6061 14.8282V14.8282C20.5834 14.25 19.9782 13.1751 19.9808 12.0185V11.9815C19.9782 10.8249 20.5821 9.75005 21.6061 9.17176V9.17176C21.8225 9.049 21.8964 8.77264 21.7699 8.5583L19.931 5.44076C19.803 5.22364 19.5246 5.14908 19.3052 5.27312V5.27312C18.2799 5.85268 17.0251 5.8246 16.0012 5.24248C15.9894 5.2361 15.9777 5.22972 15.966 5.22334C14.9446 4.64888 14.3003 3.59954 14.3003 2.4468V2.4468C14.3003 2.20004 14.1002 2 13.8535 2H10.1465C9.89977 2 9.69973 2.20004 9.69973 2.4468V2.4468C9.69973 3.59954 9.05537 4.65016 8.03404 5.22334C8.02231 5.22972 8.01057 5.2361 7.99883 5.24248C6.97489 5.8246 5.72008 5.85268 4.69484 5.27312V5.27312C4.4754 5.14909 4.19705 5.22366 4.06902 5.44079L2.23002 8.55955C2.10362 8.77391 2.17745 9.05027 2.39392 9.17304V9.17304C3.41655 9.75132 4.02178 10.8262 4.01917 11.9828V12.0198V12.0185Z" stroke="#202223" stroke-width="1.8" stroke-miterlimit="10" stroke-linejoin="round"/>
<path d="M12 16C14.2091 16 16 14.2091 16 12C16 9.79086 14.2091 8 12 8C9.79086 8 8 9.79086 8 12C8 14.2091 9.79086 16 12 16Z" stroke="#202223" stroke-width="1.8" stroke-miterlimit="10"/>
</svg>
