<svg width="24" height="24" viewBox="0 0 24 24" fill="none" xmlns="http://www.w3.org/2000/svg">
<path d="M7.74211 6.289C7.35159 6.67952 7.35159 7.31269 7.74211 7.70321C8.13264 8.09374 8.7658 8.09374 9.15633 7.70321L11 5.85954V15.9961C11 16.5484 11.4477 16.9961 12 16.9961C12.5523 16.9961 13 16.5484 13 15.9961V5.89003L14.8132 7.70321C15.2037 8.09374 15.8369 8.09374 16.2274 7.70321C16.6179 7.31269 16.6179 6.67952 16.2274 6.289L12.6919 2.75346C12.3013 2.36294 11.6682 2.36294 11.2776 2.75346L7.74211 6.289Z" fill="#202223"/>
<path d="M2.25 12.9961C2.25 11.3393 3.59315 9.99611 5.25 9.99611H7.92331C8.4756 9.99611 8.92331 10.4438 8.92331 10.9961C8.92331 11.5484 8.4756 11.9961 7.92331 11.9961H5.25C4.69772 11.9961 4.25 12.4438 4.25 12.9961V19.9961C4.25 20.5484 4.69772 20.9961 5.25 20.9961H18.75C19.3023 20.9961 19.75 20.5484 19.75 19.9961V12.9961C19.75 12.4438 19.3023 11.9961 18.75 11.9961H16.0825C15.5302 11.9961 15.0825 11.5484 15.0825 10.9961C15.0825 10.4438 15.5302 9.99611 16.0825 9.99611H18.75C20.4069 9.99611 21.75 11.3393 21.75 12.9961V19.9961C21.75 21.653 20.4069 22.9961 18.75 22.9961H5.25C3.59315 22.9961 2.25 21.653 2.25 19.9961V12.9961Z" fill="#202223"/>
</svg>
