<svg width="24" height="24" viewBox="0 0 24 24" fill="none" xmlns="http://www.w3.org/2000/svg">
<path fill-rule="evenodd" clip-rule="evenodd" d="M10.2495 20.5L8.61555 18.866L4.21374 14.5205C3.82071 14.1325 3.81663 13.4994 4.20463 13.1064C4.59263 12.7133 5.22579 12.7092 5.61882 13.0972L8.24951 15.6943V4.5C8.24951 3.94772 8.69723 3.5 9.24951 3.5C9.8018 3.5 10.2495 3.94772 10.2495 4.5V20.5ZM13.7496 3.5L15.3836 5.13397L19.7854 9.47946C20.1784 9.86746 20.1825 10.5006 19.7945 10.8936C19.4065 11.2867 18.7733 11.2908 18.3803 10.9028L15.7496 8.30571V19.5C15.7496 20.0523 15.3019 20.5 14.7496 20.5C14.1973 20.5 13.7496 20.0523 13.7496 19.5V3.5Z" fill="#202223"/>
</svg>
