<svg width="24" height="24" viewBox="0 0 24 24" fill="none" xmlns="http://www.w3.org/2000/svg">
<path fill-rule="evenodd" clip-rule="evenodd" d="M3.58685 18.6889L11.6484 4.65033C11.7003 4.55994 11.7469 4.52706 11.7657 4.51589C11.7874 4.50306 11.8042 4.50014 11.8162 4.5C11.8283 4.49987 11.844 4.5024 11.8642 4.51381C11.8816 4.52359 11.9273 4.55396 11.9799 4.64158L20.4079 18.6802C20.5248 18.875 20.5286 19.1156 20.4304 19.3169C20.3839 19.4122 20.3307 19.4623 20.3014 19.4823C20.2811 19.4963 20.2695 19.5 20.2447 19.5H3.75519C3.73125 19.5 3.71973 19.4965 3.69948 19.4827C3.67072 19.4632 3.61829 19.4146 3.57189 19.3218C3.47404 19.126 3.47315 18.8869 3.58685 18.6889ZM13.6946 3.61215C12.7936 2.11121 10.7873 2.13362 9.914 3.65438L1.85247 17.693C0.903978 19.3447 1.98117 21.5 3.75519 21.5H20.2447C22.0393 21.5 23.1126 19.2999 22.1226 17.6508L13.6946 3.61215ZM11 13V9C11 8.44772 11.4477 8 12 8C12.5523 8 13 8.44772 13 9V13C13 13.5523 12.5523 14 12 14C11.4477 14 11 13.5523 11 13ZM12.0001 17.5C12.5524 17.5 13.0001 17.0523 13.0001 16.5C13.0001 15.9477 12.5524 15.5 12.0001 15.5C11.4478 15.5 11.0001 15.9477 11.0001 16.5C11.0001 17.0523 11.4478 17.5 12.0001 17.5Z" fill="#202223"/>
</svg>
