<svg width="24" height="24" viewBox="0 0 24 24" fill="none" xmlns="http://www.w3.org/2000/svg">
<path fill-rule="evenodd" clip-rule="evenodd" d="M12 24C18.6274 24 24 18.6274 24 12C24 5.37258 18.6274 0 12 0C5.37258 0 0 5.37258 0 12C0 18.6274 5.37258 24 12 24ZM16.3469 7.51017C15.2585 6.74826 13.8299 6.36731 12.0612 6.36731C10.1701 6.36731 8.68707 6.8435 7.61225 7.79588C6.53742 8.74826 6 10.1496 6 12C6 13.8503 6.53742 15.2517 7.61225 16.204C8.68707 17.1564 10.1701 17.6326 12.0612 17.6326C13.8299 17.6326 15.2585 17.2517 16.3469 16.4898C17.449 15.7279 18 14.5646 18 13H14.2245C14.2245 14.2517 13.5306 14.8775 12.1429 14.8775C10.7551 14.8775 10.0612 14.1156 10.0612 12.5918V11.4285C10.0612 9.89112 10.7279 9.12241 12.0612 9.12241C13.3946 9.12241 14.0612 9.73466 14.0612 10.9591H18C18 9.40813 17.449 8.25847 16.3469 7.51017Z" fill="#202223"/>
</svg>
